HIERARCHY
ROOT Hips
{
	OFFSET -0.001795 -0.223333 0.028219
	CHANNELS 6 Xposition Yposition Zposition Zrotation Yrotation Xrotation
	JOINT LeftUpLeg
	{
		OFFSET 0.069520 -0.091406 -0.006815
		CHANNELS 3 Zrotation Yrotation Xrotation
		JOINT LeftLeg
		{
			OFFSET 0.034277 -0.375199 -0.004496
			CHANNELS 3 Zrotation Yrotation Xrotation
			JOINT LeftFoot
			{
				OFFSET -0.013596 -0.397961 -0.043693
				CHANNELS 3 Zrotation Yrotation Xrotation
				JOINT LeftToe
				{
					OFFSET 0.026358 -0.055791 0.119288
					CHANNELS 3 Zrotation Yrotation Xrotation
					End Site
					{
						OFFSET 0.000000 0.000000 0.000000
					}
				}
			}
		}
	}
	JOINT RightUpLeg
	{
		OFFSET -0.067670 -0.090522 -0.004320
		CHANNELS 3 Zrotation Yrotation Xrotation
		JOINT RightLeg
		{
			OFFSET -0.038290 -0.382569 -0.008850
			CHANNELS 3 Zrotation Yrotation Xrotation
			JOINT RightFoot
			{
				OFFSET 0.015774 -0.398415 -0.042312
				CHANNELS 3 Zrotation Yrotation Xrotation
				JOINT RightToe
				{
					OFFSET -0.025372 -0.048144 0.123348
					CHANNELS 3 Zrotation Yrotation Xrotation
					End Site
					{
						OFFSET 0.000000 0.000000 0.000000
					}
				}
			}
		}
	}
	JOINT Spine
	{
		OFFSET -0.002533 0.108963 -0.026696
		CHANNELS 3 Zrotation Yrotation Xrotation
		JOINT Spine1
		{
			OFFSET 0.005487 0.135180 0.001092
			CHANNELS 3 Zrotation Yrotation Xrotation
			JOINT Spine2
			{
				OFFSET 0.001457 0.052922 0.025425
				CHANNELS 3 Zrotation Yrotation Xrotation
				JOINT Neck
				{
					OFFSET -0.002778 0.213870 -0.042857
					CHANNELS 3 Zrotation Yrotation Xrotation
					JOINT Head
					{
						OFFSET 0.005152 0.064970 0.051349
						CHANNELS 3 Zrotation Yrotation Xrotation
						End Site
						{
							OFFSET 0.000000 0.000000 0.000000
						}
					}
				}
				JOINT LeftShoulder
				{
					OFFSET 0.078845 0.121749 -0.034090
					CHANNELS 3 Zrotation Yrotation Xrotation
					JOINT LeftArm
					{
						OFFSET 0.090977 0.030469 -0.008868
						CHANNELS 3 Zrotation Yrotation Xrotation
						JOINT LeftForeArm
						{
							OFFSET 0.259612 -0.012772 -0.027456
							CHANNELS 3 Zrotation Yrotation Xrotation
							JOINT LeftHand
							{
								OFFSET 0.249234 0.008986 -0.001171
								CHANNELS 3 Zrotation Yrotation Xrotation
								End Site
								{
									OFFSET 0.000000 0.000000 0.000000
								}
							}
						}
					}
				}
				JOINT RightShoulder
				{
					OFFSET -0.081759 0.118833 -0.038615
					CHANNELS 3 Zrotation Yrotation Xrotation
					JOINT RightArm
					{
						OFFSET -0.096012 0.032551 -0.009143
						CHANNELS 3 Zrotation Yrotation Xrotation
						JOINT RightForeArm
						{
							OFFSET -0.253742 -0.013329 -0.021401
							CHANNELS 3 Zrotation Yrotation Xrotation
							JOINT RightHand
							{
								OFFSET -0.255298 0.007772 -0.005559
								CHANNELS 3 Zrotation Yrotation Xrotation
								End Site
								{
									OFFSET 0.000000 0.000000 0.000000
								}
							}
						}
					}
				}
			}
		}
	}
}
MOTION
Frames: 5
Frame Time: 0.050000
0.004540 0.088235 -0.043539 0.256621 -9.176955 -85.065389 5.421558 0.699163 -11.523872 3.106773 -1.227611 12.904768 -4.855433 5.530133 39.026335 0.000000 0.000000 0.000000 -7.793776 -0.603215 -9.775132 7.274726 -0.860277 12.179628 -0.940360 -13.861747 37.639389 0.000000 0.000000 0.000000 3.384834 5.355025 -35.630602 0.676573 -0.332602 0.177454 -1.133256 -0.107880 39.704835 7.677325 -4.463853 -21.032328 0.000000 0.000000 0.000000 14.221214 -2.127859 0.255705 -76.470244 5.648316 -16.583959 -26.487417 -45.600152 14.232159 0.000000 0.000000 0.000000 -4.006860 -3.032033 -1.103977 76.554071 -7.259105 -19.205989 24.729157 45.590075 12.371428 0.000000 0.000000 0.000000
0.004463 0.090122 -0.043896 0.124320 -9.282367 -85.069688 5.750095 0.796099 -11.647604 2.646414 -1.142832 13.563813 -4.851453 5.414893 38.453023 0.000000 0.000000 0.000000 -8.205609 -0.668044 -10.158599 7.294023 -0.841985 13.366027 -1.585908 -14.382668 36.442910 0.000000 0.000000 0.000000 3.155492 5.247785 -35.810680 0.756824 -0.372468 0.239756 -1.001051 0.055792 40.017262 7.837413 -4.553194 -21.053172 0.000000 0.000000 0.000000 14.469842 -1.965978 0.200994 -76.533896 5.530469 -16.587489 -29.265283 -48.800689 16.882640 0.000000 0.000000 0.000000 -4.338789 -3.477422 -1.228521 76.010608 -7.701742 -19.374384 28.674343 46.945085 14.611367 0.000000 0.000000 0.000000
0.004359 0.090925 -0.044179 0.065340 -9.615416 -85.055390 5.969232 0.868333 -11.736924 2.397072 -1.088130 13.887619 -4.608346 5.460206 37.897896 0.000000 0.000000 0.000000 -8.629737 -0.715150 -10.792205 7.764257 -0.909130 14.791467 -1.879247 -14.617016 35.642020 0.000000 0.000000 0.000000 3.081061 5.217980 -35.624366 0.951290 -0.472925 0.490716 -0.846939 0.317378 39.499228 8.262282 -4.863051 -20.768533 0.000000 0.000000 0.000000 13.960259 -1.857773 0.194085 -76.222318 5.205895 -16.281307 -32.646964 -51.932436 20.173204 0.000000 0.000000 0.000000 -2.999837 -3.076809 -1.177875 74.149504 -8.782215 -19.485417 32.872000 50.317651 17.870112 0.000000 0.000000 0.000000
0.004151 0.092730 -0.044376 0.115184 -9.926426 -84.982968 6.180245 0.953716 -11.302024 2.161334 -0.980168 13.105284 -4.185989 5.770484 37.765878 0.000000 0.000000 0.000000 -8.959429 -0.763647 -10.993024 8.353225 -1.019857 15.339172 -2.778459 -15.423172 34.007508 0.000000 0.000000 0.000000 2.883795 5.246122 -36.136358 1.288127 -0.643692 0.917551 -0.935376 0.846236 39.423586 8.659664 -5.094668 -20.659668 0.000000 0.000000 0.000000 14.015111 -1.675424 0.155089 -75.528465 4.776091 -15.952997 -37.109609 -55.297103 24.443576 0.000000 0.000000 0.000000 -2.229470 -3.134783 -1.250986 72.822823 -9.631750 -19.573883 34.919224 51.986788 19.615773 0.000000 0.000000 0.000000
0.003731 0.092661 -0.044526 -0.009850 -10.315415 -84.736400 6.336725 1.019049 -10.945152 2.259131 -0.936464 11.679033 -4.613305 5.436417 38.255871 0.000000 0.000000 0.000000 -8.539944 -0.640123 -11.206126 8.819128 -1.123200 15.278257 -3.499586 -16.131389 33.446245 0.000000 0.000000 0.000000 2.656848 5.192106 -36.311054 1.576958 -0.790873 1.146886 -0.832883 1.051586 38.696595 9.003513 -5.298074 -20.661007 0.000000 0.000000 0.000000 14.020172 -1.987782 0.235035 -75.108831 4.568914 -15.585629 -43.272040 -59.114179 30.584106 0.000000 0.000000 0.000000 -1.188667 -3.181851 -1.347485 69.980982 -10.752938 -19.292484 38.647471 53.622553 22.088025 0.000000 0.000000 0.000000
